<svg xmlns="http://www.w3.org/2000/svg" xmlns:xlink="http://www.w3.org/1999/xlink" width="1920" zoomAndPan="magnify" viewBox="0 0 1440 374.999991" height="500" preserveAspectRatio="xMidYMid meet" version="1.0"><defs><g/><clipPath id="4fe0a85d32"><rect x="0" width="1432" y="0" height="375"/></clipPath></defs><g transform="matrix(1, 0, 0, 1, 8, 0)"><g clip-path="url(#4fe0a85d32)"><g fill="#000000" fill-opacity="1"><g transform="translate(0.829234, 348.886749)"><g><path d="M 353.5 -246.828125 C 355.695312 -231.722656 353.648438 -217.5625 347.359375 -204.34375 C 341.066406 -191.132812 332.332031 -179.414062 321.15625 -169.1875 C 309.988281 -158.96875 297.957031 -150.867188 285.0625 -144.890625 C 275.9375 -140.796875 266.8125 -138.039062 257.6875 -136.625 C 248.5625 -135.207031 239.28125 -134.660156 229.84375 -134.984375 C 224.175781 -134.984375 219.769531 -132.703125 216.625 -128.140625 C 213.476562 -123.578125 212.847656 -118.617188 214.734375 -113.265625 C 217.566406 -104.453125 220.082031 -95.171875 222.28125 -85.421875 C 224.488281 -75.671875 227.085938 -66.390625 230.078125 -57.578125 C 233.066406 -48.765625 237.3125 -41.367188 242.8125 -35.390625 C 248.320312 -29.410156 255.953125 -25.953125 265.703125 -25.015625 C 270.421875 -24.378906 273.960938 -22.410156 276.328125 -19.109375 C 278.691406 -15.804688 279.875 -12.1875 279.875 -8.25 C 279.875 -4.320312 278.691406 -0.941406 276.328125 1.890625 C 273.960938 4.722656 270.421875 5.820312 265.703125 5.1875 C 238.648438 2.675781 219.300781 -10.691406 207.65625 -34.921875 C 206.082031 -38.066406 203.878906 -43.960938 201.046875 -52.609375 C 198.210938 -61.265625 194.988281 -70.546875 191.375 -80.453125 C 187.757812 -90.367188 183.75 -98.789062 179.34375 -105.71875 C 177.132812 -109.175781 174.222656 -110.90625 170.609375 -110.90625 C 166.992188 -110.90625 163.925781 -109.488281 161.40625 -106.65625 L 161.40625 -106.1875 C 143.46875 -82.28125 123.328125 -60.960938 100.984375 -42.234375 C 78.648438 -23.515625 53.007812 -9.59375 24.0625 -0.46875 C 17.769531 1.726562 12.972656 0.707031 9.671875 -3.53125 C 6.367188 -7.78125 5.109375 -12.65625 5.890625 -18.15625 C 6.679688 -23.664062 10.066406 -27.367188 16.046875 -29.265625 C 32.722656 -34.921875 48.769531 -42.941406 64.1875 -53.328125 C 79.601562 -63.710938 93.835938 -75.429688 106.890625 -88.484375 C 119.953125 -101.546875 131.203125 -114.523438 140.640625 -127.421875 C 143.160156 -130.890625 142.609375 -133.09375 138.984375 -134.03125 C 135.367188 -134.976562 130.492188 -134.976562 124.359375 -134.03125 C 118.222656 -133.09375 112.796875 -131.519531 108.078125 -129.3125 C 102.097656 -126.800781 96.90625 -127.195312 92.5 -130.5 C 88.09375 -133.800781 85.65625 -138.046875 85.1875 -143.234375 C 84.71875 -148.429688 87.3125 -152.441406 92.96875 -155.265625 C 97.0625 -157.472656 102.960938 -159.441406 110.671875 -161.171875 C 118.378906 -162.898438 126.554688 -164.316406 135.203125 -165.421875 C 143.859375 -166.523438 151.804688 -166.757812 159.046875 -166.125 C 163.140625 -166.125 166.285156 -167.695312 168.484375 -170.84375 C 178.867188 -186.257812 189.410156 -201.363281 200.109375 -216.15625 C 210.804688 -230.945312 222.601562 -244.789062 235.5 -257.6875 C 239.59375 -261.78125 241.242188 -266.109375 240.453125 -270.671875 C 239.671875 -275.234375 237.390625 -279.003906 233.609375 -281.984375 C 229.835938 -284.972656 225.28125 -285.84375 219.9375 -284.59375 C 206.71875 -281.125 194.285156 -276.007812 182.640625 -269.25 C 171.003906 -262.488281 161.722656 -254.226562 154.796875 -244.46875 C 151.023438 -239.125 146.304688 -236.765625 140.640625 -237.390625 C 134.972656 -238.023438 130.644531 -240.539062 127.65625 -244.9375 C 124.675781 -249.34375 125.070312 -254.222656 128.84375 -259.578125 C 136.707031 -270.585938 147.328125 -280.492188 160.703125 -289.296875 C 174.078125 -298.109375 188.785156 -305.109375 204.828125 -310.296875 C 220.867188 -315.492188 237.070312 -318.484375 253.4375 -319.265625 C 269.800781 -320.054688 285.0625 -318.25 299.21875 -313.84375 C 313.375 -309.4375 325.328125 -301.726562 335.078125 -290.71875 C 344.835938 -279.707031 350.976562 -265.078125 353.5 -246.828125 Z M 280.34375 -176.03125 C 291.351562 -182.332031 300.472656 -190.832031 307.703125 -201.53125 C 314.941406 -212.226562 319.503906 -223.472656 321.390625 -235.265625 C 323.285156 -247.066406 321.242188 -257.53125 315.265625 -266.65625 C 313.691406 -269.164062 311.566406 -270.8125 308.890625 -271.59375 C 306.210938 -272.382812 303.617188 -271.992188 301.109375 -270.421875 L 295.4375 -267.125 C 280.332031 -258 266.878906 -247.144531 255.078125 -234.5625 C 243.285156 -221.976562 232.039062 -208.289062 221.34375 -193.5 C 218.195312 -189.09375 217.015625 -184.375 217.796875 -179.34375 C 218.585938 -174.3125 220.945312 -170.140625 224.875 -166.828125 C 228.8125 -163.523438 233.457031 -162.191406 238.8125 -162.828125 C 246.039062 -163.453125 253.113281 -164.785156 260.03125 -166.828125 C 266.957031 -168.878906 273.726562 -171.945312 280.34375 -176.03125 Z M 280.34375 -176.03125 "/></g></g></g><g fill="#000000" fill-opacity="1"><g transform="translate(308.061531, 348.886749)"><g><path d="M 96.75 -159.984375 C 90.457031 -159.984375 86.285156 -162.421875 84.234375 -167.296875 C 82.191406 -172.179688 82.191406 -177.140625 84.234375 -182.171875 C 86.285156 -187.203125 90.457031 -189.71875 96.75 -189.71875 C 103.351562 -189.71875 107.675781 -187.203125 109.71875 -182.171875 C 111.769531 -177.140625 111.769531 -172.179688 109.71875 -167.296875 C 107.675781 -162.421875 103.351562 -159.984375 96.75 -159.984375 Z M 102.40625 -75.046875 C 108.070312 -80.078125 113.738281 -82.039062 119.40625 -80.9375 C 125.070312 -79.832031 129.160156 -77.234375 131.671875 -73.140625 C 134.191406 -69.054688 133.09375 -64.65625 128.375 -59.9375 C 120.1875 -51.757812 111.6875 -43.421875 102.875 -34.921875 C 94.070312 -26.429688 85.1875 -19.117188 76.21875 -12.984375 C 67.25 -6.847656 57.890625 -2.675781 48.140625 -0.46875 C 40.898438 1.101562 33.503906 0.945312 25.953125 -0.9375 C 18.398438 -2.832031 11.945312 -6.375 6.59375 -11.5625 C 1.25 -16.75 -2.046875 -23.117188 -3.296875 -30.671875 C -4.867188 -42.003906 -3.613281 -52.78125 0.46875 -63 C 4.5625 -73.226562 10.304688 -82.90625 17.703125 -92.03125 C 25.097656 -101.15625 33.195312 -110.039062 42 -118.6875 C 50.8125 -127.34375 59.148438 -135.921875 67.015625 -144.421875 C 71.421875 -149.140625 76.453125 -151.023438 82.109375 -150.078125 C 87.773438 -149.140625 92.023438 -146.625 94.859375 -142.53125 C 97.691406 -138.4375 96.90625 -134.03125 92.5 -129.3125 C 79.601562 -115.78125 68.515625 -103.585938 59.234375 -92.734375 C 49.953125 -81.878906 41.378906 -69.53125 33.515625 -55.6875 C 30.992188 -51.28125 29.101562 -46.5625 27.84375 -41.53125 C 26.582031 -36.5 27.128906 -32.722656 29.484375 -30.203125 C 31.847656 -27.679688 37.125 -27.679688 45.3125 -30.203125 C 50.03125 -31.773438 55.296875 -34.6875 61.109375 -38.9375 C 66.929688 -43.1875 72.753906 -47.75 78.578125 -52.625 C 84.398438 -57.5 89.429688 -62.0625 93.671875 -66.3125 C 97.921875 -70.5625 100.832031 -73.472656 102.40625 -75.046875 Z M 102.40625 -75.046875 "/></g></g></g><g fill="#000000" fill-opacity="1"><g transform="translate(406.696776, 348.886749)"><g><path d="M 189.25 -63.71875 L 202.46875 -76.921875 C 206.875 -81.328125 211.4375 -82.507812 216.15625 -80.46875 C 220.875 -78.425781 224.253906 -75.039062 226.296875 -70.3125 C 228.347656 -65.59375 227.171875 -61.035156 222.765625 -56.640625 C 218.046875 -51.921875 211.832031 -45.863281 204.125 -38.46875 C 196.414062 -31.070312 188 -23.910156 178.875 -16.984375 C 169.75 -10.066406 160.625 -4.957031 151.5 -1.65625 C 142.375 1.644531 133.878906 1.722656 126.015625 -1.421875 C 112.484375 -6.765625 104.144531 -15.257812 101 -26.90625 C 89.351562 -16.832031 77.078125 -8.882812 64.171875 -3.0625 C 51.273438 2.75 37.90625 3.457031 24.0625 -0.9375 C 12.113281 -4.71875 4.40625 -11.09375 0.9375 -20.0625 C -2.519531 -29.03125 -3.066406 -39.019531 -0.703125 -50.03125 C 1.648438 -61.039062 5.660156 -71.421875 11.328125 -81.171875 C 16.992188 -90.929688 23.128906 -98.640625 29.734375 -104.296875 C 39.796875 -113.734375 50.410156 -121.832031 61.578125 -128.59375 C 72.753906 -135.363281 84.476562 -141.582031 96.75 -147.25 C 103.039062 -150.394531 110.273438 -153.222656 118.453125 -155.734375 C 126.640625 -158.253906 134.585938 -159.90625 142.296875 -160.6875 C 150.003906 -161.476562 156.375 -160.617188 161.40625 -158.109375 L 161.875 -158.109375 C 172.882812 -150.867188 178.546875 -143.550781 178.859375 -136.15625 C 179.179688 -128.757812 174.9375 -118.769531 166.125 -106.1875 C 157.3125 -93.601562 150.625 -83.378906 146.0625 -75.515625 C 141.5 -67.648438 137.332031 -59.941406 133.5625 -52.390625 C 130.414062 -45.460938 128.84375 -39.242188 128.84375 -33.734375 C 128.84375 -28.234375 133.09375 -26.585938 141.59375 -28.796875 C 149.132812 -31.304688 157.234375 -36.019531 165.890625 -42.9375 C 174.546875 -49.863281 182.332031 -56.789062 189.25 -63.71875 Z M 47.203125 -28.796875 C 62.929688 -33.191406 76.851562 -41.757812 88.96875 -54.5 C 101.082031 -67.25 111.539062 -79.914062 120.34375 -92.5 L 132.140625 -109.5 L 140.640625 -122.234375 C 143.472656 -126.640625 145.363281 -129.941406 146.3125 -132.140625 C 138.125 -133.085938 128.835938 -131.515625 118.453125 -127.421875 C 108.078125 -123.335938 98.164062 -118.460938 88.71875 -112.796875 C 79.28125 -107.128906 71.570312 -101.9375 65.59375 -97.21875 C 57.414062 -90.925781 49.316406 -83.453125 41.296875 -74.796875 C 33.273438 -66.148438 28.632812 -56.320312 27.375 -45.3125 C 26.113281 -38.070312 27.289062 -33.035156 30.90625 -30.203125 C 34.53125 -27.367188 39.960938 -26.898438 47.203125 -28.796875 Z M 47.203125 -28.796875 "/></g></g></g><g fill="#000000" fill-opacity="1"><g transform="translate(602.551478, 348.886749)"><g/></g></g><g fill="#000000" fill-opacity="1"><g transform="translate(729.974976, 348.886749)"><g><path d="M 247.78125 -174.625 C 243.375 -170.21875 238.570312 -168.957031 233.375 -170.84375 C 228.1875 -172.726562 224.648438 -176.265625 222.765625 -181.453125 C 220.878906 -186.648438 222.132812 -191.453125 226.53125 -195.859375 C 230.625 -199.953125 234.875 -205.773438 239.28125 -213.328125 C 243.6875 -220.878906 247.382812 -228.976562 250.375 -237.625 C 253.363281 -246.28125 254.773438 -254.539062 254.609375 -262.40625 C 254.453125 -270.269531 251.859375 -276.5625 246.828125 -281.28125 C 241.796875 -286 233.457031 -288.046875 221.8125 -287.421875 C 211.113281 -286.785156 200.414062 -284.816406 189.71875 -281.515625 C 179.019531 -278.210938 169.109375 -273.570312 159.984375 -267.59375 C 141.421875 -255.320312 125.691406 -240.847656 112.796875 -224.171875 C 99.898438 -207.503906 87.785156 -189.882812 76.453125 -171.3125 C 72.367188 -164.394531 67.257812 -155.820312 61.125 -145.59375 C 54.988281 -135.375 49.476562 -124.519531 44.59375 -113.03125 C 39.71875 -101.550781 36.570312 -90.378906 35.15625 -79.515625 C 33.738281 -68.660156 35.546875 -59.144531 40.578125 -50.96875 C 45.617188 -42.789062 55.375 -36.972656 69.84375 -33.515625 C 87.46875 -29.421875 103.671875 -29.65625 118.453125 -34.21875 C 133.242188 -38.78125 147.007812 -46.015625 159.75 -55.921875 C 172.5 -65.835938 184.535156 -76.773438 195.859375 -88.734375 C 199.003906 -92.191406 202.460938 -93.757812 206.234375 -93.4375 C 210.015625 -93.125 213.320312 -91.550781 216.15625 -88.71875 C 218.988281 -85.894531 220.640625 -82.515625 221.109375 -78.578125 C 221.578125 -74.648438 220.082031 -70.953125 216.625 -67.484375 C 208.445312 -58.679688 198.535156 -49.632812 186.890625 -40.34375 C 175.253906 -31.0625 162.75 -22.878906 149.375 -15.796875 C 136 -8.722656 122.3125 -3.613281 108.3125 -0.46875 C 94.3125 2.675781 80.625 2.753906 67.25 -0.234375 C 53.882812 -3.222656 41.378906 -10.539062 29.734375 -22.1875 C 18.085938 -33.507812 10.769531 -45.773438 7.78125 -58.984375 C 4.789062 -72.203125 4.867188 -85.734375 8.015625 -99.578125 C 11.171875 -113.421875 16.128906 -127.265625 22.890625 -141.109375 C 29.648438 -154.953125 37.195312 -168.085938 45.53125 -180.515625 C 53.875 -192.953125 61.507812 -204.359375 68.4375 -214.734375 C 76.925781 -226.691406 87.148438 -239.351562 99.109375 -252.71875 C 111.066406 -266.09375 124.28125 -278.363281 138.75 -289.53125 C 153.226562 -300.707031 168.488281 -308.96875 184.53125 -314.3125 C 200.582031 -319.664062 217.101562 -320.296875 234.09375 -316.203125 C 248.5625 -312.742188 259.648438 -307.003906 267.359375 -298.984375 C 275.066406 -290.960938 279.941406 -281.519531 281.984375 -270.65625 C 284.035156 -259.800781 283.800781 -248.550781 281.28125 -236.90625 C 278.769531 -225.269531 274.601562 -214.023438 268.78125 -203.171875 C 262.957031 -192.316406 255.957031 -182.800781 247.78125 -174.625 Z M 247.78125 -174.625 "/></g></g></g><g fill="#000000" fill-opacity="1"><g transform="translate(966.888331, 348.886749)"><g><path d="M 163.296875 -69.375 C 165.492188 -73.15625 168.476562 -75.28125 172.25 -75.75 C 176.03125 -76.21875 179.648438 -75.429688 183.109375 -73.390625 C 186.578125 -71.347656 188.9375 -68.671875 190.1875 -65.359375 C 191.445312 -62.054688 190.664062 -58.519531 187.84375 -54.75 C 184.0625 -50.03125 178.628906 -43.972656 171.546875 -36.578125 C 164.472656 -29.179688 156.609375 -22.175781 147.953125 -15.5625 C 139.304688 -8.957031 130.5 -4.316406 121.53125 -1.640625 C 112.5625 1.023438 104.457031 0 97.21875 -4.71875 C 89.039062 -10.070312 84.320312 -16.519531 83.0625 -24.0625 C 81.800781 -31.613281 82.90625 -39.796875 86.375 -48.609375 C 87.625 -52.066406 89.191406 -55.210938 91.078125 -58.046875 C 92.972656 -60.878906 94.707031 -63.867188 96.28125 -67.015625 C 99.738281 -73.617188 100.757812 -79.203125 99.34375 -83.765625 C 97.925781 -88.328125 95.09375 -91.628906 90.84375 -93.671875 C 86.601562 -95.722656 81.804688 -95.804688 76.453125 -93.921875 C 70.160156 -91.398438 63.472656 -87.78125 56.390625 -83.0625 C 49.316406 -78.34375 42.945312 -73.460938 37.28125 -68.421875 C 31.625 -63.390625 27.535156 -58.988281 25.015625 -55.21875 C 18.722656 -45.46875 11.957031 -35.953125 4.71875 -26.671875 C -2.519531 -17.390625 -10.382812 -9.597656 -18.875 -3.296875 C -23.59375 0.160156 -28.078125 0.550781 -32.328125 -2.125 C -36.578125 -4.800781 -39.09375 -8.8125 -39.875 -14.15625 C -40.664062 -19.507812 -38.546875 -24.070312 -33.515625 -27.84375 C -25.640625 -33.820312 -18.398438 -41.375 -11.796875 -50.5 C -5.191406 -59.625 1.175781 -69.140625 7.3125 -79.046875 C 13.445312 -88.960938 19.191406 -98.007812 24.546875 -106.1875 C 34.296875 -120.976562 43.570312 -135.84375 52.375 -150.78125 C 61.1875 -165.726562 70.15625 -180.753906 79.28125 -195.859375 C 81.488281 -199.953125 84.796875 -205.300781 89.203125 -211.90625 C 93.609375 -218.507812 98.5625 -225.429688 104.0625 -232.671875 C 109.570312 -239.910156 115.550781 -246.359375 122 -252.015625 C 128.445312 -257.679688 135.050781 -261.535156 141.8125 -263.578125 C 148.582031 -265.628906 155.269531 -264.765625 161.875 -260.984375 C 169.425781 -256.265625 174.617188 -249.34375 177.453125 -240.21875 C 180.285156 -231.09375 180.914062 -221.734375 179.34375 -212.140625 C 177.769531 -202.546875 173.992188 -194.445312 168.015625 -187.84375 C 160.148438 -179.03125 151.101562 -171.394531 140.875 -164.9375 C 130.65625 -158.488281 120.273438 -152.351562 109.734375 -146.53125 C 99.191406 -140.71875 89.039062 -134.191406 79.28125 -126.953125 C 78.34375 -126.328125 78.109375 -125.539062 78.578125 -124.59375 C 79.046875 -123.65625 79.910156 -123.34375 81.171875 -123.65625 C 89.984375 -124.914062 98.398438 -123.890625 106.421875 -120.578125 C 114.441406 -117.273438 121.441406 -110.429688 127.421875 -100.046875 C 131.203125 -93.753906 132.695312 -87.773438 131.90625 -82.109375 C 131.125 -76.453125 129.316406 -71.023438 126.484375 -65.828125 C 123.648438 -60.640625 120.660156 -55.53125 117.515625 -50.5 C 114.367188 -45.46875 112.320312 -40.117188 111.375 -34.453125 C 110.75 -31.929688 112.320312 -31.144531 116.09375 -32.09375 C 119.875 -33.039062 124.671875 -35.242188 130.484375 -38.703125 C 136.304688 -42.160156 142.207031 -46.5625 148.1875 -51.90625 C 154.164062 -57.257812 159.203125 -63.082031 163.296875 -69.375 Z M 151.03125 -222.296875 C 151.03125 -227.640625 149.296875 -229.679688 145.828125 -228.421875 C 142.367188 -227.160156 138.125 -224.015625 133.09375 -218.984375 C 128.0625 -213.953125 122.945312 -208.207031 117.75 -201.75 C 112.5625 -195.300781 108.234375 -189.484375 104.765625 -184.296875 C 101.304688 -179.109375 99.578125 -175.726562 99.578125 -174.15625 C 102.097656 -173.519531 106.109375 -174.929688 111.609375 -178.390625 C 117.117188 -181.859375 122.625 -185.789062 128.125 -190.1875 C 133.632812 -194.59375 137.175781 -197.585938 138.75 -199.171875 C 142.21875 -201.992188 145.207031 -205.289062 147.71875 -209.0625 C 150.238281 -212.84375 151.34375 -217.253906 151.03125 -222.296875 Z M 151.03125 -222.296875 "/></g></g></g><g fill="#000000" fill-opacity="1"><g transform="translate(1129.707416, 348.886749)"><g><path d="M 175.09375 -82.59375 C 179.1875 -87.625 183.671875 -89.113281 188.546875 -87.0625 C 193.421875 -85.019531 196.878906 -81.484375 198.921875 -76.453125 C 200.972656 -71.421875 199.953125 -66.390625 195.859375 -61.359375 C 190.515625 -55.066406 183.988281 -47.671875 176.28125 -39.171875 C 168.570312 -30.671875 160.234375 -23.507812 151.265625 -17.6875 C 142.296875 -11.875 132.773438 -9.28125 122.703125 -9.90625 C 117.046875 -10.539062 111.859375 -12.113281 107.140625 -14.625 C 101.785156 -17.144531 96.75 -16.832031 92.03125 -13.6875 C 84.789062 -8.65625 77.316406 -4.878906 69.609375 -2.359375 C 61.898438 0.160156 53.800781 1.101562 45.3125 0.46875 C 36.5 -0.15625 28.472656 -3.613281 21.234375 -9.90625 C 14.003906 -16.195312 9.128906 -23.4375 6.609375 -31.625 C 3.460938 -41.6875 3.222656 -52.929688 5.890625 -65.359375 C 8.566406 -77.785156 12.425781 -88.722656 17.46875 -98.171875 C 22.1875 -106.660156 28.082031 -115.625 35.15625 -125.0625 C 42.238281 -134.5 50.265625 -142.757812 59.234375 -149.84375 C 68.203125 -156.925781 77.875 -161.488281 88.25 -163.53125 C 98.632812 -165.570312 109.332031 -163.289062 120.34375 -156.6875 C 138.59375 -145.363281 148.738281 -130.890625 150.78125 -113.265625 C 152.832031 -95.648438 148.191406 -78.1875 136.859375 -60.875 C 135.285156 -58.675781 133.789062 -56.550781 132.375 -54.5 C 130.96875 -52.457031 129.476562 -50.335938 127.90625 -48.140625 C 126.644531 -46.566406 126.722656 -45.070312 128.140625 -43.65625 C 129.554688 -42.238281 131.050781 -42.003906 132.625 -42.953125 L 134.03125 -43.421875 C 142.21875 -48.765625 149.535156 -54.816406 155.984375 -61.578125 C 162.429688 -68.347656 168.800781 -75.351562 175.09375 -82.59375 Z M 43.890625 -30.203125 C 48.296875 -28.003906 53.09375 -27.925781 58.28125 -29.96875 C 63.476562 -32.007812 68.117188 -34.289062 72.203125 -36.8125 C 75.035156 -40.582031 77.003906 -43.175781 78.109375 -44.59375 C 79.210938 -46.007812 79.132812 -48.921875 77.875 -53.328125 L 74.5625 -63.71875 C 72.988281 -68.75 73.695312 -72.757812 76.6875 -75.75 C 79.675781 -78.738281 83.21875 -80.703125 87.3125 -81.640625 C 89.832031 -82.273438 92.191406 -81.882812 94.390625 -80.46875 C 96.585938 -79.050781 98.472656 -77.242188 100.046875 -75.046875 C 101.617188 -73.148438 103.503906 -72.28125 105.703125 -72.4375 C 107.910156 -72.601562 109.644531 -73.628906 110.90625 -75.515625 C 115 -82.429688 118.066406 -88.484375 120.109375 -93.671875 C 122.160156 -98.867188 122.867188 -103.828125 122.234375 -108.546875 C 121.609375 -115.148438 118.460938 -121.046875 112.796875 -126.234375 C 107.128906 -131.429688 100.835938 -133.71875 93.921875 -133.09375 C 85.734375 -132.457031 78.414062 -129.226562 71.96875 -123.40625 C 65.519531 -117.59375 59.9375 -110.832031 55.21875 -103.125 C 50.5 -95.414062 46.09375 -88.253906 42 -81.640625 C 40.113281 -77.242188 37.988281 -71.503906 35.625 -64.421875 C 33.269531 -57.335938 32.40625 -50.648438 33.03125 -44.359375 C 33.664062 -38.066406 37.285156 -33.347656 43.890625 -30.203125 Z M 43.890625 -30.203125 "/></g></g></g><g fill="#000000" fill-opacity="1"><g transform="translate(1295.82994, 348.886749)"><g><path d="M 96.75 -159.984375 C 90.457031 -159.984375 86.285156 -162.421875 84.234375 -167.296875 C 82.191406 -172.179688 82.191406 -177.140625 84.234375 -182.171875 C 86.285156 -187.203125 90.457031 -189.71875 96.75 -189.71875 C 103.351562 -189.71875 107.675781 -187.203125 109.71875 -182.171875 C 111.769531 -177.140625 111.769531 -172.179688 109.71875 -167.296875 C 107.675781 -162.421875 103.351562 -159.984375 96.75 -159.984375 Z M 102.40625 -75.046875 C 108.070312 -80.078125 113.738281 -82.039062 119.40625 -80.9375 C 125.070312 -79.832031 129.160156 -77.234375 131.671875 -73.140625 C 134.191406 -69.054688 133.09375 -64.65625 128.375 -59.9375 C 120.1875 -51.757812 111.6875 -43.421875 102.875 -34.921875 C 94.070312 -26.429688 85.1875 -19.117188 76.21875 -12.984375 C 67.25 -6.847656 57.890625 -2.675781 48.140625 -0.46875 C 40.898438 1.101562 33.503906 0.945312 25.953125 -0.9375 C 18.398438 -2.832031 11.945312 -6.375 6.59375 -11.5625 C 1.25 -16.75 -2.046875 -23.117188 -3.296875 -30.671875 C -4.867188 -42.003906 -3.613281 -52.78125 0.46875 -63 C 4.5625 -73.226562 10.304688 -82.90625 17.703125 -92.03125 C 25.097656 -101.15625 33.195312 -110.039062 42 -118.6875 C 50.8125 -127.34375 59.148438 -135.921875 67.015625 -144.421875 C 71.421875 -149.140625 76.453125 -151.023438 82.109375 -150.078125 C 87.773438 -149.140625 92.023438 -146.625 94.859375 -142.53125 C 97.691406 -138.4375 96.90625 -134.03125 92.5 -129.3125 C 79.601562 -115.78125 68.515625 -103.585938 59.234375 -92.734375 C 49.953125 -81.878906 41.378906 -69.53125 33.515625 -55.6875 C 30.992188 -51.28125 29.101562 -46.5625 27.84375 -41.53125 C 26.582031 -36.5 27.128906 -32.722656 29.484375 -30.203125 C 31.847656 -27.679688 37.125 -27.679688 45.3125 -30.203125 C 50.03125 -31.773438 55.296875 -34.6875 61.109375 -38.9375 C 66.929688 -43.1875 72.753906 -47.75 78.578125 -52.625 C 84.398438 -57.5 89.429688 -62.0625 93.671875 -66.3125 C 97.921875 -70.5625 100.832031 -73.472656 102.40625 -75.046875 Z M 102.40625 -75.046875 "/></g></g></g></g></g></svg>